<svg width="58" height="62" viewBox="0 0 58 62" fill="none" xmlns="http://www.w3.org/2000/svg">
<path d="M51.5039 22.6248C52.5528 24.2782 53.1666 26.2699 53.1666 28.4167V51.6667H48.3333V43.9916L43.4999 38.75C43.4661 38.75 26.5833 38.75 26.5833 38.75V51.6667H21.7499V44.1905L15.4328 34.7329C14.8576 33.6195 14.4999 32.3614 14.4999 31H10.8749C7.5375 31 4.83325 28.1093 4.83325 24.5417C4.83325 21.4133 6.91642 18.8067 9.67867 18.2125C9.67867 18.1686 9.66659 18.1273 9.66659 18.0833C9.66659 13.8028 14.4999 10.3333 19.3333 10.3333C22.2429 10.3333 25.1357 11.6043 26.9893 13.5393L31.4166 18.0833H43.4999C44.3796 18.0833 45.2133 18.2487 46.0229 18.4838C46.3999 16.7762 47.8282 15.5 49.5416 15.5C51.5426 15.5 53.1666 17.236 53.1666 19.375C53.1666 20.739 52.502 21.9351 51.5039 22.6248Z" fill="#6D4C41"/>
<path opacity="0.3" d="M24.1667 11.5426V14.2093C24.1667 16.3488 22.5427 18.0852 20.5417 18.0852C18.5407 18.0852 16.9167 16.3488 16.9167 14.2093V10.6305C17.707 10.4419 18.519 10.3333 19.3334 10.3333C21.0275 10.3333 22.6877 10.801 24.1667 11.5426Z" fill="black"/>
<path opacity="0.4" d="M43.4588 38.75H26.5833V51.6667H21.7499V44.1905L15.4328 34.7329C14.8576 33.6195 14.4999 32.3614 14.4999 31H11.4042C9.7415 31 9.21467 30.721 9.21467 30.721C6.68925 29.946 4.83325 27.4893 4.83325 24.5417C4.83325 21.6147 6.6675 19.1735 9.16392 18.383C9.3355 18.3262 9.49984 18.2512 9.67867 18.2125C9.67867 18.1686 9.66659 18.1272 9.66659 18.0833C9.66659 14.5261 13.0137 11.5604 16.9166 10.6485V14.2083C16.9166 16.3473 18.5406 18.0833 20.5416 18.0833C22.5426 18.0833 24.1666 16.3473 24.1666 14.2083V28.4167C24.1666 31.2713 26.3295 33.5833 28.9999 33.5833H38.6545L43.4588 38.75Z" fill="white"/>
</svg>
