<svg width="58" height="62" viewBox="0 0 58 62" fill="none" xmlns="http://www.w3.org/2000/svg">
<path d="M50.75 15.5V20.6667C48.0844 20.6667 45.9167 22.9839 45.9167 25.8333V46.5C45.9167 52.1988 41.5812 56.8333 36.25 56.8333H14.5V25.8333V23.25H9.66667L7.25 18.0833L11.2955 12.3897L11.3003 12.4026C12.1413 11.4364 13.2433 10.7363 14.5 10.4625V5.16666C14.5 5.16666 24.1667 7.74999 24.1667 15.5C24.1667 17.2567 24.1884 22.5964 24.2029 25.8333H26.5833C31.9218 25.8333 36.25 30.4601 36.25 36.1667V51.6667C38.9156 51.6667 41.0833 49.3494 41.0833 46.5V25.8333C41.0833 20.1345 45.4188 15.5 50.75 15.5Z" fill="#D9D9D9"/>
<path opacity="0.3" d="M41.0833 25.8333V46.5C41.0833 49.3417 38.9083 51.6667 36.2499 51.6667V56.8333C36.2958 56.8333 36.3949 56.8333 36.4916 56.8075C36.8783 56.7817 37.6298 56.6525 38.6448 56.4975C42.8232 55.3608 45.9166 51.3308 45.9166 46.5V25.8333C45.9166 22.9917 48.0916 20.6667 50.7499 20.6667V15.5C45.4091 15.5 41.0833 20.1242 41.0833 25.8333ZM19.3333 56.8333H24.1666C24.1666 53.9917 26.3416 51.6667 28.9999 51.6667V46.5C23.6591 46.5 19.3333 51.1242 19.3333 56.8333Z" fill="black"/>
</svg>
